<?xml version="1.0" encoding="UTF-8" standalone="no"?>
<!DOCTYPE svg PUBLIC "-//W3C//DTD SVG 1.1//EN" "http://www.w3.org/Graphics/SVG/1.1/DTD/svg11.dtd">
<svg width="100%" height="100%" viewBox="0 0 104 102" version="1.1" xmlns="http://www.w3.org/2000/svg" xmlns:xlink="http://www.w3.org/1999/xlink" xml:space="preserve" xmlns:serif="http://www.serif.com/" style="fill-rule:evenodd;clip-rule:evenodd;stroke-linejoin:round;stroke-miterlimit:2;">
    <path d="M104,102L104,59.727L84.114,59.727C84.114,53.856 84.803,48.545 86.182,43.794C87.561,39.044 89.602,34.507 92.307,30.184C95.01,25.86 98.909,22.257 104,19.375L104,0C94.242,4.27 86.288,9.874 80.136,16.813C73.985,23.752 69.424,31.358 66.455,39.631C63.485,47.904 62,59.941 62,75.74L62,102L104,102ZM42,102L42,59.727L22.114,59.727C22.114,53.856 22.803,48.545 24.182,43.794C25.561,39.044 27.602,34.507 30.307,30.184C33.01,25.86 36.909,22.257 42,19.375L42,0C32.348,4.27 24.42,9.874 18.216,16.813C12.01,23.752 7.424,31.358 4.455,39.631C1.485,47.904 0,59.941 0,75.74L0,102L42,102Z" style="fill-rule:nonzero;"/>
</svg>
